<?xml version="1.0" encoding="UTF-8" standalone="no"?>
<svg width="272px" height="68px" viewBox="0 0 272 68" version="1.1" xmlns="http://www.w3.org/2000/svg" xmlns:xlink="http://www.w3.org/1999/xlink" xmlns:sketch="http://www.bohemiancoding.com/sketch/ns">
    <title>Slice 1</title>
    <description>Created with Sketch (http://www.bohemiancoding.com/sketch)</description>
    <defs></defs>
    <g id="Page-1" stroke="none" stroke-width="1" fill="none" fill-rule="evenodd" sketch:type="MSPage">
        <g id="Group-copy-+-linkedin-circle-icon-+-github-2-circle-icon-+-linkedin-circle-icon-+-github-2-circle-icon-copy" sketch:type="MSLayerGroup" fill="#443B58">
            <g id="linkedin-circle-icon-+-github-2-circle-icon" transform="translate(16.000000, 19.000000)" sketch:type="MSShapeGroup">
                <path d="M79,27 L74,27 L74,9 L79,9 L79,27 L79,27 Z M76.0000561,7 C74.3432166,7 73,5.43296369 73,3.5 C73,1.56703631 74.3432166,0 76.0000561,0 C77.6567834,0 79,1.56703631 79,3.5 C79,5.43296369 77.6567834,7 76.0000561,7 L76.0000561,7 Z M100,27 L94.5569719,27 L94.5569719,17.831154 C94.5569719,15.3164543 93.5906258,13.9126118 91.5789668,13.9126118 C89.3897836,13.9126118 88.2459133,15.3746688 88.2459133,17.831154 L88.2459133,27 L83,27 L83,9.53289592 L88.2459133,9.53289592 L88.2459133,11.8852644 C88.2459133,11.8852644 89.823678,9 93.5706725,9 C97.317788,9 99.9998791,11.2614008 99.9998791,15.9400788 C100,20.6187567 100,27 100,27 L100,27 Z" id="linkedin-circle-icon"></path>
                <path d="M7.42208738,22.1497573 C7.42208738,22.2324029 7.32754854,22.2991505 7.21104369,22.2991505 C7.09441748,22.2991505 7,22.2322816 7,22.1497573 C7,22.0668689 7.09441748,22 7.21104369,22 C7.32754854,22 7.42208738,22.0668689 7.42208738,22.1497573 L7.42208738,22.1497573 Z M7.24684466,22 C7.11055825,22 7,22.0785194 7,22.175 C7,22.2717233 7.11055825,22.3501214 7.24684466,22.3501214 C7.38300971,22.3501214 7.4934466,22.2717233 7.4934466,22.175 C7.49356796,22.0786408 7.38300971,22 7.24684466,22 L7.24684466,22 Z M8.50009954,23 C8.22396974,23 8,23.096966 8,23.2162621 C8,23.3356796 8.22396974,23.4322816 8.50009954,23.4322816 C8.77603026,23.4322816 9,23.3356796 9,23.2162621 C9,23.096966 8.77603026,23 8.50009954,23 L8.50009954,23 Z M6.16201456,21 C6.07257282,21 6,21.0514563 6,21.1149272 C6,21.1781553 6.07257282,21.2296117 6.16201456,21.2296117 C6.25145631,21.2296117 6.32402913,21.1781553 6.32402913,21.1149272 C6.32402913,21.0514563 6.25145631,21 6.16201456,21 L6.16201456,21 Z M6.18009709,21 C6.08070388,21 6,21.0572816 6,21.1277913 C6,21.1981796 6.08070388,21.2553398 6.18009709,21.2553398 C6.27924757,21.2553398 6.35995146,21.1981796 6.35995146,21.1277913 C6.35995146,21.0572816 6.27924757,21 6.18009709,21 L6.18009709,21 Z M8.4998894,23 C8.22384428,23 8,23.0872573 8,23.1946602 C8,23.3023058 8.22384428,23.3893204 8.4998894,23.3893204 C8.77593453,23.3893204 9,23.3023058 9,23.1946602 C9,23.0872573 8.77593453,23 8.4998894,23 L8.4998894,23 Z M29.7598511,16.9820441 C29.8331519,16.8142986 29.9057244,16.6456903 29.9684669,16.4685776 C31.9248924,16.3092132 33.9404196,16.3248662 35.9678399,16.5249036 L36,16.1859615 C33.9995213,15.9887589 32.0096008,15.9712571 30.076719,16.1211312 C30.3873976,15.114165 30.5511106,13.9767986 30.5393388,12.6832723 C30.5138534,9.93549959 29.611672,7.79535759 28.1939584,6.01930102 C28.4661662,4.3464061 28.2610698,2.67351118 27.7472366,1 C25.7212725,1.16848503 23.8978563,1.84230191 22.2743181,3.01306953 C19.240105,2.38793706 16.206256,2.34812677 13.1719216,3.01306953 C11.2782387,1.71498294 9.41853621,1.07838806 7.58759578,1 C7.04487916,2.84273572 6.96126294,4.65909559 7.42012062,6.44488904 C5.8227959,8.16622186 5.21236107,10.2558307 5.2423367,12.5696343 C5.25944829,13.89422 5.46029713,15.0728757 5.83116966,16.1149686 C3.92656443,15.9731059 1.9689254,15.9920867 0,16.1858383 L0.0322814446,16.5247804 C2.03725041,16.3270847 4.0306903,16.3108155 5.96697018,16.4646336 C6.03808644,16.6396509 6.10956678,16.8141753 6.19124126,16.9808116 C4.09331144,16.9246088 2.20521101,17.1097328 0.43701309,17.5513435 L0.516745831,17.881658 C2.31139998,17.4337615 4.23396631,17.253321 6.38043966,17.326779 C7.79997371,19.888072 10.5327315,21.3930981 14.5122084,21.8706983 C13.5876969,22.6333797 13.0906112,23.5328704 12.9625777,24.5508059 L10.8549391,24.5508059 C8.02436615,24.5508059 7.25264545,20.8854245 4.32085922,21.2469216 C7.16514575,22.6794758 6.59706514,27.2582753 11.1483847,27.2582753 L13.0605142,27.2582753 L13.0605142,31.4554877 C13.0807811,32.1337417 12.7900054,32.5873078 12.3204682,32.9015996 C13.9504384,33.0686056 15.1753129,32.2422031 15.1753129,31.2285814 L15.1753129,25.6805307 C15.1753129,25.1862915 15.6848986,25.1480835 15.6848986,25.1480835 L15.6848986,31.625575 C15.7065005,32.2701813 15.3980063,32.6366085 15.0705803,32.9867665 C16.5066191,33.0449413 17.8573427,32.7535743 17.9185076,31.51243 L17.9185076,25.3129942 C17.9185076,25.001414 18.4215398,24.9936492 18.4215398,25.3129942 L18.4215398,31.2214328 C18.4363456,32.268579 19.3268766,33.1175365 21.2135207,32.9866432 C20.7087894,32.5739966 20.5538142,32.1570362 20.5538142,31.5534728 L20.5538142,25.1479602 C20.5538142,25.1479602 21.0738367,25.1209681 21.0738367,25.6804075 L21.0738367,31.0830212 C21.0738367,32.2854645 22.4950698,32.7815524 24.1171517,32.7348401 C23.5857215,32.3305746 23.2260139,31.848414 23.2238295,31.2035613 L23.2238295,24.7063495 C23.1689753,23.7513956 22.7865737,22.8510421 22.0370616,22.0123145 C25.6747921,21.4449871 28.2966279,19.9704041 29.602206,17.3271488 C31.7557182,17.2520885 33.6841097,17.4320359 35.4833755,17.8812883 L35.5632296,17.5509738 C33.7811968,17.106405 31.8775624,16.9215275 29.7598511,16.9820441 L29.7598511,16.9820441 Z M13.5,24 C13.2240143,24 13,24.1078883 13,24.2404126 C13,24.3729369 13.2240143,24.4805825 13.5,24.4805825 C13.7761649,24.4805825 14,24.3729369 14,24.2404126 C14,24.1078883 13.7761649,24 13.5,24 L13.5,24 Z M11.4999104,24 C11.223696,24 11,24.107767 11,24.2404126 C11,24.3729369 11.223696,24.4805825 11.4999104,24.4805825 C11.7759455,24.4805825 12,24.3729369 12,24.2404126 C12,24.107767 11.7759455,24 11.4999104,24 L11.4999104,24 Z M10.5,24 C10.2240143,24 10,24.107767 10,24.2404126 C10,24.3729369 10.2240143,24.4805825 10.5,24.4805825 C10.7763441,24.4805825 11,24.3729369 11,24.2404126 C11,24.107767 10.7763441,24 10.5,24 L10.5,24 Z M9.50017921,24 C9.22383513,24 9,24.107767 9,24.2402913 C9,24.3730583 9.22383513,24.4805825 9.50017921,24.4805825 C9.77616487,24.4805825 10,24.3729369 10,24.2402913 C10,24.107767 9.77616487,24 9.50017921,24 L9.50017921,24 Z" id="github-2-circle-icon"></path>
                <path d="M167.133523,10.7283381 C167.496747,18.8947168 161.471026,28 150.80563,28 C147.561622,28 144.541968,27.0386133 142,25.3913379 C145.047548,25.754334 148.089325,24.8998896 150.504567,22.9868383 C147.990854,22.9399295 145.869101,21.2614221 145.138324,18.9545073 C146.038389,19.1285315 146.923905,19.0776124 147.732353,18.8553426 C144.969877,18.2942603 143.06262,15.7786866 143.124901,13.0886025 C143.899202,13.5236631 144.78532,13.784821 145.726985,13.8149592 C143.168666,12.0867479 142.444261,8.67225155 143.949339,6.06298181 C146.782391,9.57579216 151.015437,11.8874464 155.789652,12.1295248 C154.951748,8.49761969 157.677552,5 161.38554,5 C163.037783,5 164.530838,5.7050898 165.578549,6.83357374 C166.887166,6.57314502 168.116429,6.08996043 169.226541,5.4246094 C168.797669,6.78046719 167.886663,7.9184301 166.700684,8.63688768 C167.862737,8.49676901 168.969963,8.18457051 170,7.72265284 C169.229907,8.88710828 168.256019,9.90986521 167.133523,10.7283381 L167.133523,10.7283381 Z" id="twitter-4-icon"></path>
                <path d="M240.043204,3.88883495 L225.121966,15.3326456 L210.224515,3.88883495 L240.043204,3.88883495 L240.043204,3.88883495 Z M210.121238,7.02330097 L218.898786,13.7658981 L210.121238,22.5434466 L210.121238,7.02330097 L210.121238,7.02330097 Z M210.157767,26.1110437 L220.937015,15.3317961 L225.120752,18.5453883 L229.297694,15.3419903 L240.066869,26.1109223 L210.157767,26.1109223 L210.157767,26.1110437 Z M240.121359,22.5615291 L231.337379,13.7775485 L240.121359,7.0407767 L240.121359,22.5615291 L240.121359,22.5615291 Z" id="email-9-icon"></path>
            </g>
        </g>
    </g>
</svg>